<svg width="97" height="19" viewBox="0 0 97 19" fill="none" xmlns="http://www.w3.org/2000/svg">
<rect x="51.1924" y="17.6777" width="12" height="12" rx="0.836821" transform="rotate(-135 51.1924 17.6777)" fill="white" fill-opacity="0.2" stroke="white"/>
<path d="M4.548 14.084C5.148 14.084 5.716 13.956 6.252 13.7C6.788 13.436 7.244 13.068 7.62 12.596L7.188 12.26C6.86 12.66 6.464 12.972 6 13.196C5.544 13.42 5.06 13.532 4.548 13.532C3.932 13.532 3.364 13.38 2.844 13.076C2.324 12.764 1.908 12.344 1.596 11.816C1.292 11.288 1.14 10.712 1.14 10.088C1.14 9.464 1.292 8.888 1.596 8.36C1.908 7.832 2.324 7.416 2.844 7.112C3.364 6.8 3.932 6.644 4.548 6.644C5.028 6.644 5.484 6.744 5.916 6.944C6.356 7.144 6.736 7.424 7.056 7.784L7.476 7.412C7.092 6.996 6.644 6.676 6.132 6.452C5.628 6.22 5.1 6.104 4.548 6.104C3.836 6.104 3.176 6.284 2.568 6.644C1.96 7.004 1.48 7.488 1.128 8.096C0.776 8.704 0.6 9.368 0.6 10.088C0.6 10.808 0.776 11.476 1.128 12.092C1.48 12.7 1.96 13.184 2.568 13.544C3.176 13.904 3.836 14.084 4.548 14.084ZM14.6454 14V13.46H10.2654V6.2H9.72544V14H14.6454ZM17.7421 14V6.2H17.2021V14H17.7421ZM24.003 14.084C24.603 14.084 25.171 13.956 25.707 13.7C26.243 13.436 26.699 13.068 27.075 12.596L26.643 12.26C26.315 12.66 25.919 12.972 25.455 13.196C24.999 13.42 24.515 13.532 24.003 13.532C23.387 13.532 22.819 13.38 22.299 13.076C21.779 12.764 21.363 12.344 21.051 11.816C20.747 11.288 20.595 10.712 20.595 10.088C20.595 9.464 20.747 8.888 21.051 8.36C21.363 7.832 21.779 7.416 22.299 7.112C22.819 6.8 23.387 6.644 24.003 6.644C24.483 6.644 24.939 6.744 25.371 6.944C25.811 7.144 26.191 7.424 26.511 7.784L26.931 7.412C26.547 6.996 26.099 6.676 25.587 6.452C25.083 6.22 24.555 6.104 24.003 6.104C23.291 6.104 22.631 6.284 22.023 6.644C21.415 7.004 20.935 7.488 20.583 8.096C20.231 8.704 20.055 9.368 20.055 10.088C20.055 10.808 20.231 11.476 20.583 12.092C20.935 12.7 21.415 13.184 22.023 13.544C22.631 13.904 23.291 14.084 24.003 14.084ZM35.2164 14H34.4964L31.7004 10.676L29.1804 14.132V6.2H29.7204V12.452L34.2684 6.2H34.9524L32.0244 10.208L35.2164 14Z" fill="white"/>
<path d="M67.644 14V10.616H69.876C70.332 10.616 70.752 10.516 71.136 10.316C71.528 10.116 71.836 9.848 72.06 9.512C72.292 9.168 72.408 8.8 72.408 8.408C72.408 8.008 72.292 7.64 72.06 7.304C71.836 6.968 71.528 6.7 71.136 6.5C70.752 6.3 70.332 6.2 69.876 6.2H67.092L67.104 14H67.644ZM67.632 6.752H69.876C70.236 6.752 70.568 6.828 70.872 6.98C71.176 7.124 71.416 7.324 71.592 7.58C71.776 7.828 71.868 8.104 71.868 8.408C71.868 8.704 71.776 8.98 71.592 9.236C71.416 9.484 71.176 9.684 70.872 9.836C70.568 9.98 70.236 10.052 69.876 10.052H67.644L67.632 6.752ZM79.5087 14V13.46H75.1287V6.2H74.5887V14H79.5087ZM82.9534 12.02L82.0294 14H81.4294L85.1014 6.104L88.5694 14H87.9814L87.1054 12.02H82.9534ZM85.0774 7.436L83.2054 11.48H86.8654L85.0774 7.436ZM92.6224 10.712L95.6944 6.2H96.3424L92.8864 11.3V14H92.3464V11.3L88.8904 6.2H89.5384L92.6224 10.712Z" fill="white"/>
</svg>
